<svg id="Component_2_1" data-name="Component 2 – 1" xmlns="http://www.w3.org/2000/svg" width="341" height="341" viewBox="0 0 341 341">
  <g id="Ellipse_3" data-name="Ellipse 3" fill="#fff" stroke="#707070" stroke-width="24">
    <circle cx="170.5" cy="170.5" r="170.5" stroke="none"/>
    <circle cx="170.5" cy="170.5" r="158.5" fill="none"/>
  </g>
  <ellipse id="Ellipse_1" data-name="Ellipse 1" cx="59.5" cy="66.5" rx="59.5" ry="66.5" transform="translate(109 53)" fill="#707070"/>
  <path id="Path_4" data-name="Path 4" d="M89.861,0C142.316,0,191.7,50,191.7,102.454a20.457,20.457,0,0,1-4.886,4.2c-4.536,3.485-13.8,7.985-16.072,9.739-5.437,4.191-13.21,6.474-21.054,9.513-4.939,1.914-10.135,3.471-16.375,5.268a90.327,90.327,0,0,1-15.4,3.351c-3.43.392-7.657,1.438-13.2,1.889a148.772,148.772,0,0,1-22.438,0c-.571-.061-13.125-1.088-13.882-1.153-16.776-1.431-20.271-3.294-30.4-6.58-4.772-1.549,8.476,3.134,3.23,1.285-3.21-1.131-28.169-9.98-30.4-12.514-1.06-1.2-9.071-5.807-23.609-16.034-.639-.52-1.586.745-1.586-.8C-14.371,48.156,37.406,0,89.861,0Z" transform="translate(80.695 203.875)" fill="#707070"/>
</svg>
