<svg id="Component_1_1" data-name="Component 1 – 1" xmlns="http://www.w3.org/2000/svg" width="315" height="342.165" viewBox="0 0 315 342.165">
  <g id="Path_1" data-name="Path 1" transform="translate(80.293)" fill="#fff">
    <path d="M 104.9638214111328 101.1649703979492 C 100.9301300048828 101.1650466918945 96.7305908203125 101.0847396850586 92.39862823486328 101.0032424926758 C 87.52670288085938 100.9115829467773 82.49628448486328 100.8180465698242 77.3499755859375 100.8180465698242 C 72.20409393310547 100.8180465698242 67.17212677001953 100.9115829467773 62.29878234863281 101.0032424926758 C 57.96716690063477 101.0847015380859 53.76786041259766 101.1649703979492 49.73578262329102 101.1649703979492 C 20.00001335144043 101.1649703979492 20.00001335144043 97.13516235351562 20.00001335144043 82.14154815673828 C 20.00001335144043 47.8765869140625 45.72709274291992 20.00000953674316 77.3499755859375 20.00000953674316 C 108.9728622436523 20.00000953674316 134.6999359130859 47.8765869140625 134.6999359130859 82.14154815673828 C 134.6999359130859 97.13478088378906 134.6999359130859 101.1644744873047 104.9638214111328 101.1649703979492 Z" stroke="none"/>
    <path d="M 77.3499755859375 40.00001525878906 C 57.12213897705078 40.00001525878906 40.59848022460938 58.23475646972656 40.01592254638672 80.90135192871094 C 42.38037872314453 81.05654907226562 45.5352783203125 81.16502380371094 49.73585510253906 81.16502380371094 C 53.64720916748047 81.16502380371094 57.72074127197266 81.08584594726562 61.92268371582031 81.00684356689453 C 66.91780090332031 80.912841796875 72.07544708251953 80.81807708740234 77.3499755859375 80.81807708740234 C 82.6259765625 80.81807708740234 87.78314971923828 80.912841796875 92.77774047851562 81.00684356689453 C 96.97903442382812 81.08584594726562 101.0519180297852 81.16502380371094 104.9640960693359 81.16502380371094 C 109.1644439697266 81.16502380371094 112.3198547363281 81.05642700195312 114.6840209960938 80.90114593505859 C 114.0995178222656 58.23651885986328 97.57655334472656 40.00001525878906 77.3499755859375 40.00001525878906 M 77.3499755859375 1.52587890625e-05 C 120.0692138671875 1.52587890625e-05 154.6999816894531 36.77601623535156 154.6999816894531 82.14154815673828 C 154.6999816894531 127.507080078125 120.0691833496094 120.8180770874023 77.3499755859375 120.8180770874023 C 34.63072967529297 120.8180770874023 -3.0517578125e-05 127.5070724487305 -3.0517578125e-05 82.14154815673828 C -3.0517578125e-05 36.77601623535156 34.6307373046875 1.52587890625e-05 77.3499755859375 1.52587890625e-05 Z" stroke="none" fill="#707070"/>
  </g>
  <g id="Rectangle_1" data-name="Rectangle 1" transform="translate(0 86)" fill="#fff" stroke="#707070" stroke-width="40">
    <rect width="315" height="256" rx="24" stroke="none"/>
    <rect x="20" y="20" width="275" height="216" rx="4" fill="none"/>
  </g>
</svg>
